<?xml version="1.0" encoding="UTF-8"?>
<svg height="128px" viewBox="0 0 128 128" width="128px" xmlns="http://www.w3.org/2000/svg">
    <path d="m 124 64 c 0 33.136719 -26.863281 60 -60 60 s -60 -26.863281 -60 -60 s 26.863281 -60 60 -60 s 60 26.863281 60 60 z m 0 0" fill="#f6f5f4"/>
    <path d="m 114.453125 76.546875 c -6.914063 27.878906 -35 44.847656 -62.730469 37.894531 c -27.71875 -6.949218 -44.59375 -35.191406 -37.675781 -63.070312 c 6.910156 -27.886719 34.992187 -44.855469 62.714844 -37.90625 c 27.730469 6.953125 44.601562 35.195312 37.691406 63.082031 z m 0 0"/>
    <path d="m 87.066406 56.539062 c 1.03125 -6.925781 -4.210937 -10.648437 -11.382812 -13.128906 l 2.328125 -9.382812 l -5.679688 -1.421875 l -2.265625 9.132812 c -1.492187 -0.375 -3.027344 -0.726562 -4.550781 -1.078125 l 2.28125 -9.191406 l -5.675781 -1.425781 l -2.328125 9.378906 c -1.234375 -0.28125 -2.445313 -0.5625 -3.625 -0.855469 l 0.007812 -0.03125 l -7.832031 -1.964844 l -1.511719 6.097657 s 4.214844 0.972656 4.125 1.03125 c 2.300781 0.578125 2.714844 2.109375 2.644531 3.320312 l -2.648437 10.6875 c 0.160156 0.042969 0.363281 0.101563 0.589844 0.191407 c -0.1875 -0.046876 -0.390625 -0.097657 -0.597657 -0.148438 l -3.714843 14.96875 c -0.28125 0.703125 -0.996094 1.757812 -2.601563 1.355469 c 0.054688 0.085937 -4.128906 -1.035157 -4.128906 -1.035157 l -2.820312 6.539063 l 7.390624 1.851563 c 1.375 0.347656 2.722657 0.707031 4.050782 1.050781 l -2.351563 9.488281 l 5.671875 1.421875 l 2.328125 -9.386719 c 1.550781 0.421875 3.054688 0.8125 4.527344 1.179688 l -2.320313 9.34375 l 5.679688 1.421875 l 2.347656 -9.46875 c 9.683594 1.84375 16.964844 1.097656 20.03125 -7.707031 c 2.46875 -7.089844 -0.125 -11.183594 -5.21875 -13.847657 c 3.710938 -0.863281 6.507813 -3.316406 7.25 -8.386719 z m -12.972656 18.296876 c -1.753906 7.089843 -13.628906 3.257812 -17.480469 2.296874 l 3.121094 -12.570312 c 3.847656 0.964844 16.191406 2.878906 14.359375 10.273438 z m 1.753906 -18.398438 c -1.597656 6.449219 -11.480468 3.171875 -14.6875 2.371094 l 2.828125 -11.402344 c 3.203125 0.804688 13.527344 2.304688 11.859375 9.03125 z m 0 0" fill="#ffffff"/>
</svg>
